<svg xmlns="http://www.w3.org/2000/svg" width="165" height="53" viewBox="0 0 165 53" fill="none"><g clip-path="url(#clip0_166_80)"><path d="M28.2066 21.2068C27.3388 20.4188 26.3841 19.6309 25.3426 19.018C26.2105 16.2164 26.7313 11.1384 25.5162 9.82507C23.8673 7.98649 19.1807 11.2259 16.8374 11.2259C14.4942 11.2259 9.80756 7.98649 8.15866 9.82507C7.03036 11.1384 7.55106 16.2164 8.33216 19.1056C7.29076 19.7184 6.33606 20.4188 5.46816 21.2944C4.60036 16.3039 2.17026 11.3135 3.81926 8.24914C5.81536 4.65952 16.5771 5.00973 16.8374 5.00973C17.1846 5.00973 27.8595 4.65952 29.8556 8.16159C31.5046 11.2259 29.0745 16.2164 28.2066 21.2068Z" fill="#FF0336"></path><path d="M19.0708 48.3633C18.8982 48.3633 18.7257 48.3633 18.5531 48.4514L26.0596 27.118H18.4668V14.7764C21.0553 14.9527 23.4712 15.8343 25.6282 17.0684C26.6636 17.6855 27.6127 18.3907 28.4755 19.2723C31.2365 21.9169 33.1347 25.5313 33.5661 29.6745C34.6015 38.8426 28.1304 47.2172 19.0708 48.3633Z" fill="#FF0336"></path><path d="M16.2944 35.8122V48.4514C8.0641 47.8327 1.1285 41.7341 0.111278 33.6026C-0.536042 28.0343 1.68335 22.8195 5.6598 19.2841C6.5845 18.4886 7.6017 17.6931 8.7114 17.0744C10.7459 15.9254 13.1502 15.13 15.7395 14.7764C15.832 14.7764 15.9245 14.7764 16.0169 14.7764L7.8792 35.8122H16.2944Z" fill="#FF0336"></path><path d="M16.8867 48.4515L16.6932 34.2434H9.77637L16.6932 15.8628L15.9838 29.6702H22.8119L16.8867 48.4515Z" fill="white"></path><path d="M6.51758 8.25901C6.51758 8.25901 11.652 5.61807 18.4668 7.07059C18.4668 6.93854 11.9321 4.29761 6.51758 8.25901Z" fill="#FF0336"></path><path d="M8.69008 20.208C8.69008 20.208 0.478425 25.6016 2.48948 36.4717C2.48948 36.4717 2.07048 31.9079 3.99768 28.6718C3.99768 28.6718 1.8191 38.4632 8.69008 44.1057C8.69008 44.1887 -0.778465 36.5547 8.69008 20.208Z" fill="#F2F2F2"></path><path d="M28.4406 25.6392C28.4406 25.6392 32.3636 36.4925 22.812 45.1924C22.812 45.1924 35.0926 37.9569 28.4406 25.6392Z" fill="#F2F2F2"></path><path d="M53.3699 25.7996C53.053 26.0129 52.7362 26.1195 52.3137 26.2262C51.3632 26.5462 50.4127 26.7595 49.3566 26.7595C48.3005 26.7595 47.35 26.5462 46.5051 26.2262C45.6602 25.9062 44.9209 25.3729 44.1816 24.7329C43.4423 24.0929 43.0199 23.3463 42.703 22.493C42.3862 21.6397 42.175 20.6797 42.175 19.6131C42.175 18.5465 42.3862 17.5865 42.703 16.7332C43.1255 15.7732 43.5479 15.0266 44.1816 14.3866C44.8153 13.7467 45.6602 13.2133 46.5051 12.8934C47.35 12.5734 48.4061 12.36 49.4622 12.36C50.6239 12.36 51.5745 12.5734 52.525 13C53.4755 13.4267 54.3204 14.0666 55.1653 14.9199L58.4392 11.8267C57.3831 10.5468 56.0102 9.58676 54.426 8.94679C52.8418 8.30681 51.0464 7.98682 49.1454 7.98682C47.4556 7.98682 45.7658 8.30681 44.2872 8.84012C42.8087 9.37344 41.5413 10.2268 40.4852 11.2934C39.4291 12.36 38.5842 13.5333 37.9505 15.0266C37.3168 16.5199 37 17.9065 37 19.6131C37 21.3197 37.3168 22.813 37.9505 24.3063C38.5842 25.6929 39.4291 26.9728 40.4852 27.9328C41.5413 28.9994 42.8087 29.7461 44.2872 30.3861C45.7658 30.9194 47.35 31.2394 49.1454 31.2394C50.7296 31.2394 52.3137 31.026 53.8979 30.4927C55.4821 29.9594 56.855 29.3194 58.1224 28.3595L55.1653 24.6263C54.5316 25.0529 54.0035 25.4796 53.3699 25.7996ZM53.3699 19.1865V27.6128L58.1224 28.2528V19.1865H53.3699Z" fill="white"></path><path d="M74.5979 13.5337L69.7397 25.2666L68.4724 28.4665L68.0499 28.9998L67.2051 30.9197L67.0994 31.0264C66.8882 31.5597 64.4591 36.2529 64.2479 36.5729H69.2117C69.3173 36.3595 71.4295 31.9864 71.5351 31.773L79.2448 13.5337H74.5979ZM69.8454 25.2666L65.0928 13.5337H60.0234L67.4163 30.9197L67.6275 31.453L71.0071 27.9332L69.8454 25.2666Z" fill="white"></path><path d="M109.344 16.6268C108.711 15.5602 107.971 14.7069 106.915 14.1736C105.859 13.5336 104.592 13.3203 103.219 13.3203C101.635 13.3203 100.156 13.7469 98.8888 14.4936C98.2548 14.9202 97.6208 15.4535 97.0928 16.0935C96.6708 15.4535 96.2478 14.9202 95.6148 14.4936C94.4528 13.7469 93.0798 13.3203 91.4956 13.3203C90.1226 13.3203 88.8553 13.6403 87.7992 14.1736C87.1655 14.4936 86.6374 15.0269 86.215 15.5602V13.5336H81.4624V30.7063H86.4262V22.0666C86.4262 21 86.6374 20.1467 86.9543 19.5067C87.2711 18.8667 87.6936 18.3334 88.3272 18.0134C88.7497 17.8001 89.3833 17.5868 90.1226 17.5868C91.1787 17.5868 91.918 17.9068 92.5518 18.5467C93.0798 19.1867 93.3968 20.2534 93.3968 21.64V30.7063H98.2548V22.0666C98.2548 21 98.3608 20.1467 98.7828 19.5067C99.0998 18.8667 99.5218 18.3334 100.156 18.0134C100.684 17.8001 101.318 17.5868 102.057 17.5868C103.113 17.5868 103.852 17.9068 104.486 18.5467C105.014 19.1867 105.331 20.2534 105.331 21.64V30.7063H110.295V20.8933C110.189 19.1867 109.872 17.6934 109.344 16.6268Z" fill="white"></path><path d="M124.764 25.3732C124.447 26.1198 124.024 26.7598 123.391 27.0798C122.757 27.5064 122.018 27.6131 121.173 27.6131C120.328 27.6131 119.589 27.3998 119.166 27.0798C118.638 26.7598 118.427 26.2265 118.427 25.5865C118.427 25.0532 118.638 24.5199 119.061 24.1999C119.483 23.7732 120.328 23.6666 121.49 23.6666H125.503V20.7867H120.962C119.272 20.7867 117.793 21 116.737 21.4266C115.681 21.8533 114.836 22.4933 114.414 23.2399C113.886 23.9866 113.674 24.9465 113.674 25.9065C113.674 26.8664 113.886 27.8264 114.414 28.5731C114.942 29.4264 115.681 29.9597 116.631 30.493C117.582 30.9196 118.744 31.2396 120.011 31.2396C121.49 31.2396 122.757 30.9196 123.707 30.3863C124.341 29.9597 124.869 29.4264 125.186 28.7864C125.397 28.4664 125.503 28.1464 125.608 27.8264L124.764 25.3732ZM127.615 15.1335C126.137 13.9602 124.13 13.3203 121.49 13.3203C120.117 13.3203 118.849 13.5336 117.476 13.8536C116.209 14.1736 115.153 14.7069 114.202 15.3469L115.998 18.8667C116.631 18.3334 117.371 18.0134 118.216 17.6934C119.061 17.3735 120.011 17.2668 120.856 17.2668C122.229 17.2668 123.179 17.5868 123.813 18.2268C124.447 18.8667 124.764 19.6134 124.764 20.68V26.6531L125.08 27.3998V30.7063H129.727V20.8933C129.727 18.3334 128.988 16.4135 127.615 15.1335Z" fill="white"></path><path d="M132.156 13.9601V17.8H143.985V13.9601H132.156ZM143.879 26.4397C143.351 26.8663 142.612 27.0797 141.873 27.0797C141.239 27.0797 140.711 26.8663 140.288 26.4397C139.866 26.013 139.76 25.4797 139.76 24.7331V9.80029H134.797V24.9464C134.797 26.973 135.325 28.573 136.486 29.5329C137.648 30.5995 139.127 31.1329 141.133 31.1329C141.873 31.1329 142.612 31.0262 143.351 30.8129C144.09 30.5995 144.619 30.3862 145.147 29.9596L143.879 26.4397Z" fill="white"></path><path d="M162.995 17.4801C162.256 16.2002 161.2 15.1335 159.827 14.3869C158.454 13.6403 156.975 13.3203 155.286 13.3203C153.596 13.3203 152.012 13.6403 150.639 14.4936C149.266 15.2402 148.21 16.3068 147.365 17.5868C146.52 18.8667 146.203 20.4667 146.203 22.1733C146.203 23.8799 146.625 25.3732 147.365 26.7598C148.104 28.1464 149.266 29.1064 150.744 29.9597C152.223 30.7063 153.913 31.133 155.814 31.133C157.398 31.133 158.771 30.9196 159.932 30.3863C161.094 29.9597 162.045 29.213 162.89 28.3597L160.249 25.4798C159.721 26.0131 159.088 26.4398 158.348 26.7598C157.715 27.0798 156.87 27.1864 155.919 27.1864C154.863 27.1864 154.018 26.9731 153.279 26.6531C152.54 26.3331 151.906 25.6932 151.483 25.0532C151.272 24.6265 151.061 24.1999 150.955 23.7732H163.84C163.84 23.5599 163.84 23.3466 163.946 23.1332C163.946 22.9199 163.946 22.7066 163.946 22.4933C164.157 20.36 163.734 18.7601 162.995 17.4801ZM151.061 20.68C151.167 20.1467 151.272 19.6134 151.483 19.1867C151.8 18.5467 152.328 18.0134 152.962 17.5868C153.596 17.1601 154.335 17.0535 155.18 17.0535C156.025 17.0535 156.764 17.2668 157.398 17.5868C158.031 17.9068 158.559 18.4401 158.876 19.1867C159.088 19.6134 159.299 20.1467 159.299 20.68H151.061Z" fill="white"></path><path d="M38.7402 43.46C38.7402 45.23 39.9802 46.07 41.4402 46.07C42.8902 46.07 44.1702 45.23 44.1702 43.46V39.05H43.0302V43.48C43.0302 44.56 42.4202 45.07 41.4502 45.07C40.4902 45.07 39.8802 44.56 39.8802 43.48V39.05H38.7402V43.46ZM46.5545 39.05V46H50.0445V45.08H47.6945V39.05H46.5545ZM51.5379 39.98H53.3979V46H54.5379V39.98H56.3879V39.05H51.5379V39.98ZM58.4424 46H59.5824V39.05H58.4424V46ZM61.9791 46H63.1191V41.24L65.2491 46H66.0391L68.1591 41.24V46H69.2991V39.05H68.0791L65.6491 44.5L63.2091 39.05H61.9791V46ZM76.3875 46H77.5875L75.0975 39.04H73.7775L71.2875 46H72.4775L72.9775 44.58H75.8875L76.3875 46ZM75.5675 43.65H73.2975L74.4375 40.42L75.5675 43.65ZM79.2101 39.98H81.0701V46H82.2101V39.98H84.0601V39.05H79.2101V39.98ZM89.9547 39.04H86.1147V46H89.9547V45.07H87.2547V42.94H89.6547V42.01H87.2547V39.97H89.9547V39.04ZM98.9262 38.96C96.9662 38.96 95.3762 40.43 95.3762 42.51C95.3762 44.6 96.9662 46.06 98.9262 46.06C100.796 46.06 102.156 44.69 102.366 43.08V42.19H98.5362V43.1H101.146C100.976 44.27 100.186 45.03 98.9262 45.03C97.5462 45.03 96.5462 44.04 96.5462 42.51C96.5462 40.98 97.5462 40 98.9262 40C99.7562 40 100.416 40.35 100.786 41.05H102.156C101.626 39.69 100.376 38.96 98.9262 38.96ZM106.101 43.48V46H107.241V43.48L109.541 39.05H108.281L106.671 42.46L105.061 39.05H103.791L106.101 43.48ZM111.345 46H112.485V41.24L114.615 46H115.405L117.525 41.24V46H118.665V39.05H117.445L115.015 44.5L112.575 39.05H111.345V46ZM124.181 42.51C124.181 44.6 125.771 46.06 127.731 46.06C129.181 46.06 130.431 45.34 130.961 43.98H129.591C129.221 44.72 128.561 45.07 127.731 45.07C126.351 45.07 125.351 44.08 125.351 42.51C125.351 40.94 126.351 39.96 127.731 39.96C128.561 39.96 129.221 40.31 129.591 41.05H130.961C130.431 39.69 129.181 38.96 127.731 38.96C125.771 38.96 124.181 40.43 124.181 42.51ZM137.036 39.04H133.196V46H137.036V45.07H134.336V42.94H136.736V42.01H134.336V39.97H137.036V39.04ZM143.91 39.04V44.22L140.48 39.04H139.34V46H140.48V40.81L143.91 46H145.05V39.04H143.91ZM147.087 39.98H148.947V46H150.087V39.98H151.937V39.05H147.087V39.98ZM157.831 39.04H153.991V46H157.831V45.07H155.131V42.94H157.531V42.01H155.131V39.97H157.831V39.04ZM163.826 41.13C163.826 41.82 163.426 42.31 162.536 42.31H161.276V39.98H162.536C163.426 39.98 163.826 40.43 163.826 41.13ZM160.136 39.05V46H161.276V43.22H162.146L163.746 46H165.106L163.386 43.12C164.556 42.83 164.996 41.95 164.996 41.13C164.996 40 164.186 39.05 162.536 39.05H160.136Z" fill="#D6D6D6"></path></g><defs><clipPath id="clip0_166_80"><rect width="165" height="53" fill="white"></rect></clipPath></defs></svg>