<svg width="231" height="182" viewBox="0 0 231 182" fill="none" xmlns="http://www.w3.org/2000/svg">
<path d="M28.8753 76.6992C26.3835 76.6992 24.3636 78.7196 24.3636 81.2109V81.8124C24.3636 84.3042 26.3835 86.3241 28.8753 86.3241C31.3671 86.3241 33.387 84.3037 33.387 81.8124V81.2109C33.387 78.7196 31.3671 76.6992 28.8753 76.6992Z" fill="#1F1F1F"/>
<path d="M226.488 221.977H218.251L209.773 206.637H220.284C226.193 206.637 231 201.83 231 195.921V183.063C231 177.154 226.193 172.348 220.284 172.348H197.889L189.131 146.906C187.402 141.884 182.672 138.51 177.361 138.51H170.336V129.035H187.65C192.246 129.035 196.22 126.324 198.061 122.418L229.457 68.039C232.629 62.5446 230.74 55.4946 225.247 52.3229L221.73 50.2926C219.069 48.7559 215.968 48.348 213 49.143C210.032 49.9389 207.551 51.8424 206.015 54.5038L178.612 101.965H122.342C115.999 101.965 110.838 107.126 110.838 113.47V117.53C110.838 123.874 115.999 129.035 122.342 129.035H139.656V138.51H132.631C127.32 138.51 122.59 141.884 120.861 146.906L112.103 172.348H101.356C99.8444 169.55 97.852 167 95.4225 164.84C95.3219 164.742 95.2163 164.648 95.1053 164.558L66.3301 141.26C63.9592 139.294 61.3781 137.625 58.6521 136.259V87.9803L64.3585 93.6867C65.2396 94.5674 66.3942 95.0082 67.5487 95.0082C68.7033 95.0082 69.8583 94.5674 70.739 93.6867L87.8027 76.6234C101.885 62.5396 101.885 39.6246 87.8027 25.5408L74.9231 12.6612C73.1613 10.8999 70.3045 10.8999 68.5427 12.6612C66.7808 14.4231 66.7808 17.2799 68.5427 19.0422L81.4222 31.9218C91.9873 42.4869 91.9873 59.6779 81.4222 70.243L67.5487 84.1165L58.6521 75.2198V64.7292C61.347 66.6543 64.5209 67.6207 67.6967 67.6207C71.6842 67.6207 75.6716 66.103 78.7071 63.0675C81.6483 60.1259 83.2675 56.2156 83.2675 52.0571C83.2675 47.8991 81.6492 43.9902 78.7098 41.0499L42.2949 4.5609C39.3538 1.61971 35.4435 0 31.2841 0C27.1248 0 23.215 1.61971 20.2742 4.5609C17.3331 7.50209 15.7134 11.4124 15.7134 15.5713C15.7134 19.7302 17.3331 23.641 20.2711 26.5785L24.3857 30.7013C24.3722 30.843 24.3641 30.986 24.3641 31.1309V58.406C24.3641 60.8974 26.384 62.9177 28.8758 62.9177C31.3676 62.9177 33.3875 60.8974 33.3875 58.406V39.7212L49.6346 56.0004C49.6341 56.0324 49.6296 56.0635 49.6296 56.0956V66.1959L47.6625 64.2288C45.9007 62.4674 43.0439 62.4674 41.2821 64.2288C39.5202 65.9907 39.5202 68.8475 41.2821 70.6097L49.6296 78.9573V133.006C46.6519 132.316 43.5902 131.954 40.5002 131.954C38.0742 131.954 35.6975 132.169 33.3875 132.58V100.913C33.3875 98.4213 31.3676 96.401 28.8758 96.401C26.384 96.401 24.3641 98.4213 24.3641 100.913V135.311C10.0394 141.558 0 155.855 0 172.454C0 190.272 11.5671 205.44 27.5868 210.842L22.8802 221.977H4.51215C2.02034 221.977 0.00045117 223.997 0.00045117 226.488C0.00045117 228.98 2.02034 231 4.51215 231H81.6559C84.1477 231 86.1676 228.98 86.1676 226.488C86.1676 223.997 84.1477 221.977 81.6559 221.977H67.5844V212.953H76.9926C77.0427 212.954 77.0973 212.955 77.1357 212.955C83.8062 212.955 89.9295 210.57 94.6997 206.609C94.8617 206.626 95.0254 206.637 95.1919 206.637H160.851V221.977H155.955C153.463 221.977 151.443 223.997 151.443 226.488C151.443 228.98 153.463 231 155.955 231H226.488C228.98 231 231 228.98 231 226.488C231 223.997 228.98 221.977 226.488 221.977ZM26.6542 20.2012C25.4176 18.9646 24.7363 17.3205 24.7363 15.5713C24.7363 13.8221 25.4176 12.1785 26.6547 10.9414C27.8913 9.70471 29.5354 9.02344 31.2841 9.02344C33.0329 9.02344 34.6774 9.70471 35.9109 10.9382L72.3239 47.4236C72.3248 47.4245 72.3262 47.4258 72.3271 47.4267C73.5637 48.6634 74.2445 50.3075 74.2445 52.0567C74.2445 53.8054 73.5633 55.4499 72.3271 56.6866C69.7739 59.2393 65.62 59.2398 63.0704 56.6898L26.6542 20.2012ZM58.5605 221.977H32.6769L36.5718 212.762C37.8649 212.887 39.1746 212.953 40.4997 212.953H58.5605V221.977ZM77.1916 203.932C77.1424 203.931 77.0892 203.93 77.0522 203.93H40.4997C23.1437 203.93 9.0234 189.81 9.0234 172.454C9.0234 155.097 23.1437 140.977 40.4997 140.977C47.8263 140.977 54.9611 143.55 60.589 148.222C60.603 148.233 60.6174 148.245 60.6318 148.256L89.2455 171.424C89.2631 171.44 89.2802 171.455 89.2974 171.471C93.3336 174.992 95.6481 180.077 95.6481 185.419C95.6481 195.608 87.374 203.902 77.1916 203.932ZM213.828 59.0155C214.16 58.4416 214.695 58.0306 215.335 57.8592C215.975 57.6877 216.644 57.7757 217.218 58.1073L220.734 60.1376C221.919 60.822 222.326 62.3425 221.642 63.5277L196.816 106.528C194.967 104.093 192.173 102.416 188.985 102.046L213.828 59.0155ZM122.343 120.012C120.974 120.012 119.861 118.899 119.861 117.53V113.47C119.861 112.101 120.974 110.988 122.342 110.988H187.649C189.018 110.988 190.131 112.101 190.131 113.47V117.53C190.131 117.821 190.078 118.1 189.985 118.359L189.835 118.619C189.76 118.75 189.693 118.882 189.632 119.016C189.179 119.62 188.46 120.012 187.65 120.012H122.343ZM161.312 129.035V143.021H148.679V129.035H161.312ZM129.394 149.843C129.869 148.462 131.17 147.534 132.632 147.534H139.657C139.657 150.025 141.676 152.045 144.168 152.045H165.824C168.316 152.045 170.336 150.025 170.336 147.534H177.361C178.822 147.534 180.123 148.462 180.598 149.843L188.345 172.348H121.647L129.394 149.843ZM101.815 197.613C103.64 193.935 104.671 189.796 104.671 185.419C104.671 184.055 104.564 182.703 104.365 181.371H220.284C221.217 181.371 221.976 182.13 221.976 183.063V195.921C221.976 196.854 221.217 197.613 220.284 197.613H101.815ZM169.874 221.977V206.637H199.463L207.941 221.977H169.874Z" fill="#1F1F1F"/>
<path d="M69.052 184.977C67.2902 183.215 64.4334 183.215 62.6716 184.976L61.0086 186.639L57.9501 183.581C60.0034 180.362 61.199 176.546 61.199 172.454C61.199 161.01 51.8886 151.7 40.4451 151.7C29.0017 151.7 19.6913 161.01 19.6913 172.454C19.6913 183.897 29.0017 193.208 40.4451 193.208C44.5359 193.208 48.351 192.013 51.5687 189.961L54.6277 193.02L52.9647 194.684C51.2028 196.446 51.2028 199.302 52.9647 201.065C53.8458 201.945 55.0003 202.386 56.1549 202.386C57.3094 202.386 58.4644 201.945 59.3451 201.065L64.1974 196.212L64.1983 196.212C64.1992 196.211 64.1997 196.21 64.1997 196.21L69.052 191.358C70.8139 189.596 70.8139 186.739 69.052 184.977ZM51.2899 176.921L43.6354 169.266C41.8735 167.505 39.0167 167.505 37.2545 169.266C35.4926 171.028 35.4926 173.885 37.2545 175.647L44.9072 183.3C43.5311 183.868 42.0247 184.184 40.4451 184.184C33.9772 184.184 28.7147 178.922 28.7147 172.454C28.7147 165.985 33.9772 160.723 40.4451 160.723C46.9131 160.723 52.1756 165.985 52.1756 172.454C52.1756 174.035 51.8593 175.543 51.2899 176.921Z" fill="#1F1F1F"/>
<path d="M140.12 223.299C139.281 222.459 138.117 221.977 136.931 221.977C135.744 221.977 134.58 222.459 133.741 223.299C132.902 224.138 132.419 225.302 132.419 226.488C132.419 227.675 132.902 228.839 133.741 229.678C134.58 230.517 135.744 231 136.931 231C138.117 231 139.281 230.517 140.12 229.678C140.96 228.839 141.442 227.675 141.442 226.488C141.442 225.302 140.96 224.138 140.12 223.299Z" fill="#1F1F1F"/>
</svg>
