<svg width="208" height="34" viewBox="0 0 208 34" fill="none" xmlns="http://www.w3.org/2000/svg">
<path d="M37.9363 3.14218C37.9363 3.06161 37.9997 2.90047 38.0632 2.90047C38.0632 2.90047 38.3171 2.90047 38.571 2.98104L38.8884 2.65877L39.0153 2.49763C39.1423 2.5782 39.3961 2.5782 39.5866 2.5782C39.777 2.5782 40.3482 2.17536 40.4117 2.25592V2.41706C40.4117 2.5782 40.6021 2.5782 40.856 2.49763C41.0465 2.41706 41.9351 2.5782 42.189 2.5782C42.4429 2.5782 43.2045 2.25592 43.395 2.25592C43.5854 2.25592 43.9662 2.49763 44.0932 2.49763C44.2201 2.49763 44.601 2.25592 44.6644 2.25592C44.7279 2.25592 44.9818 2.25592 44.9818 2.09479C44.9818 1.93365 45.4896 2.17536 45.6165 2.17536L45.7435 2.09479C45.9974 1.93365 46.0608 2.01422 46.1243 2.25592L46.1878 2.41706C46.3782 2.17536 46.5686 2.01422 46.6956 2.09479C46.8225 2.17536 47.2668 2.17536 47.5207 2.17536L47.7111 2.01422L47.8381 1.93365C47.965 1.93365 48.2189 2.01422 48.3459 2.01422L48.2824 2.25592C48.4094 2.33649 48.4728 2.49763 48.5998 2.65877C48.7267 2.5782 48.7902 2.49763 48.7902 2.33649C48.7902 2.25592 49.1076 2.09479 49.3615 2.01422L49.5519 2.17536V2.25592C49.8058 2.41706 50.0597 2.41706 50.1866 2.25592L50.3135 2.17536L50.377 2.09479C50.504 2.09479 50.5674 2.17536 50.5674 2.25592V2.41706C50.5674 2.49763 50.6309 2.49763 50.7579 2.49763L50.8213 2.5782C50.8848 2.49763 50.9483 2.33649 51.0118 2.25592L51.1387 2.09479C51.2656 2.17536 51.4561 2.17536 51.5195 2.17536C51.583 2.17536 52.0273 2.17536 52.3447 2.49763L52.789 2.17536C52.8525 2.09479 53.0429 2.17536 53.0429 2.17536L53.2333 2.49763C53.4872 2.33649 53.7411 2.17536 53.8046 2.09479C53.8681 2.01422 54.1219 1.85308 54.1854 1.93365C54.2489 2.09479 54.5028 2.33649 54.6932 2.17536H54.8202L55.074 2.09479C55.3914 2.09479 55.6453 2.09479 55.7088 2.01422C55.7723 2.01422 56.0261 1.93365 56.2166 1.85308C56.407 1.77251 57.1052 2.09479 57.1687 2.01422L57.2321 1.93365C57.3591 1.93365 57.4226 1.93365 57.3591 2.09479V2.17536C57.3591 2.25592 57.486 2.33649 57.5495 2.33649L57.7399 2.49763C57.7399 2.33649 57.8034 2.17536 57.8669 2.09479C57.9303 2.01422 58.2477 1.85308 58.5651 1.93365L58.819 2.01422H58.8824C58.9459 2.09479 58.9459 2.17536 58.9459 2.17536C58.9459 2.17536 58.819 2.33649 58.7555 2.5782C58.692 2.81991 57.9938 2.73934 57.9303 2.73934V2.90047C57.9303 2.98104 58.2477 3.22275 58.5651 3.38389L58.9459 3.14218L59.0729 2.98104C59.2633 2.90047 59.2633 2.81991 59.0729 2.73934C58.8824 2.65877 59.1363 2.01422 59.3268 1.85308H59.5807C60.025 1.85308 60.4693 2.01422 60.9136 1.77251C61.0405 1.69194 61.2944 1.77251 61.4214 1.93365L61.5483 2.01422C61.6118 2.25592 61.6753 2.33649 61.7387 2.17536C61.8022 2.01422 62.1196 1.69194 62.31 1.77251C62.5004 1.77251 63.1352 1.69194 63.2621 1.45024L63.4525 1.61137H63.516C63.5795 1.69194 63.6429 1.85308 63.7699 2.01422L63.9603 1.85308H64.0238C64.1507 1.85308 64.2777 1.93365 64.2777 2.09479C64.2777 2.17536 64.4046 2.41706 64.4681 2.33649V2.25592C64.4681 2.17536 64.4681 2.09479 64.4681 2.09479C64.5316 1.93365 64.6585 1.93365 64.7855 2.01422C65.1028 2.25592 64.8489 1.77251 65.0394 1.77251H65.1663C65.2932 1.69194 65.5471 1.77251 65.7376 1.85308L65.928 1.69194C65.9915 1.61137 66.1184 1.61137 66.1184 1.61137L66.4992 2.09479C66.7531 1.69194 67.0705 1.53081 67.2609 1.77251C67.4513 1.93365 68.1495 1.77251 68.2765 1.85308C68.4034 1.93365 68.9747 1.69194 69.2921 1.69194L69.546 1.53081H69.6094C69.6729 1.61137 69.9903 1.69194 70.1807 1.77251L70.5615 1.69194L70.8789 1.61137C70.9424 1.85308 71.0693 1.93365 71.1963 1.77251C71.3232 1.69194 71.831 1.77251 71.8945 1.77251C71.9579 1.77251 72.2118 1.61137 72.4657 1.53081L72.9735 1.69194C73.2909 1.69194 73.5448 1.69194 73.6082 1.69194C73.6717 1.77251 73.7987 1.77251 73.8621 1.69194C73.9256 1.61137 74.3064 1.36967 74.3699 1.45024C74.4334 1.53081 74.6873 1.77251 74.8142 1.85308C74.9412 1.93365 75.449 1.85308 75.7029 1.69194C75.9568 1.61137 76.5915 1.69194 76.7184 1.69194C76.8454 1.69194 77.2897 1.53081 77.3532 1.61137C77.4801 1.69194 77.7975 1.85308 77.861 1.85308H77.9244L78.1149 1.69194C78.3687 1.69194 78.6861 1.77251 78.7496 1.77251C78.8131 1.77251 79.1304 1.69194 79.3208 1.69194C79.5113 1.69194 79.9556 1.69194 79.9556 1.45024L80.3364 1.69194L80.3999 1.77251C80.4634 1.77251 80.6538 1.85308 80.8442 1.85308C81.0346 1.85308 81.6059 1.93365 81.7963 1.77251C81.9867 1.69194 82.558 1.53081 82.6849 1.53081L82.7484 1.61137C82.8754 1.77251 83.0023 1.93365 83.2562 1.85308H83.4466C83.5736 1.69194 83.7005 1.53081 83.764 1.53081H84.0813C84.3352 1.45024 84.7161 1.36967 84.9065 1.2891L85.0334 1.53081C85.1604 1.77251 85.4143 1.85308 85.6682 1.61137L86.8107 1.45024H87.1281C87.5089 1.45024 87.8897 1.53081 88.0167 1.45024C88.1436 1.45024 88.461 1.69194 88.461 1.53081C88.461 1.36967 88.5879 1.2891 88.7149 1.53081C88.8418 1.77251 89.6035 1.53081 89.9209 1.53081C90.1748 1.53081 90.9999 1.36967 91.0634 1.2891L91.5077 1.69194C92.079 1.61137 92.6502 1.61137 92.6502 1.61137C92.8407 1.45024 92.9676 1.2891 93.2215 1.45024L93.3484 1.53081C93.6023 1.45024 93.9832 1.2891 94.2371 1.2891H94.7449C95.0622 1.2891 95.3796 1.36967 95.4431 1.45024C95.5065 1.53081 95.697 1.61137 95.697 1.61137C95.697 1.53081 95.9509 1.36967 96.0778 1.36967C96.2682 1.36967 96.776 1.2891 96.903 1.36967V1.77251C97.0934 1.69194 97.4742 1.61137 97.7281 1.53081L97.982 1.69194C98.1089 1.77251 98.2994 1.77251 98.3628 1.69194C98.5532 1.53081 98.7437 1.53081 98.9976 1.53081H99.188C99.4419 1.45024 99.6958 1.36967 99.7593 1.2891C99.8862 1.2891 100.204 1.45024 100.394 1.45024C100.584 1.45024 101.092 1.36967 101.219 1.36967C101.283 1.36967 101.537 1.20853 101.6 1.2891C101.663 1.36967 102.108 1.69194 102.425 1.93365L102.489 1.2891C102.489 1.2891 102.679 1.20853 102.742 1.2891L103.25 1.53081C103.504 1.45024 104.075 1.36967 104.52 1.2891H105.028C105.091 1.45024 105.535 1.53081 106.043 1.45024H106.487C106.614 1.45024 106.614 1.69194 106.424 1.77251L106.36 1.85308C106.234 1.85308 106.234 1.93365 106.36 2.01422C106.487 2.09479 106.741 2.09479 106.741 1.93365C106.741 1.77251 106.868 1.2891 107.059 1.2891C107.249 1.2891 107.884 1.45024 108.074 1.45024H108.265C108.455 1.45024 108.709 1.45024 108.899 1.53081L109.217 1.69194C109.534 1.53081 109.851 1.36967 110.042 1.2891C110.169 1.20853 110.423 1.61137 110.423 1.61137C110.423 1.61137 110.613 1.53081 110.677 1.45024L110.804 1.61137C110.994 1.77251 111.121 1.77251 111.184 1.45024V1.36967C111.311 1.2891 111.502 1.2891 111.565 1.45024C111.629 1.61137 112.137 1.53081 112.39 1.45024C112.644 1.45024 113.406 1.36967 113.533 1.36967L113.596 1.20853C113.596 1.20853 113.85 1.12796 113.85 1.20853C113.914 1.2891 113.914 1.61137 114.168 1.45024L114.295 1.36967C114.358 1.12796 114.612 1.04739 114.866 1.20853L115.12 1.36967C115.183 1.36967 115.818 1.2891 115.881 1.2891C116.072 1.12796 116.262 0.886256 116.326 1.36967C116.389 1.36967 116.516 1.45024 116.643 1.45024C116.77 1.45024 117.151 1.53081 117.151 1.53081C117.214 1.45024 117.341 1.2891 117.341 1.20853C117.341 1.20853 117.532 1.04739 117.722 0.966825C117.913 0.886256 118.357 1.12796 118.42 1.04739C118.42 0.966825 118.738 0.966825 118.801 1.04739C118.865 1.12796 119.246 1.36967 119.372 1.2891C119.436 1.20853 119.753 1.04739 119.817 1.12796C119.88 1.20853 120.071 1.2891 120.134 1.20853C120.134 1.12796 120.325 0.966825 120.452 1.12796H120.832C120.896 1.2891 121.023 1.36967 121.15 1.20853C121.213 1.04739 121.531 0.725119 121.531 0.805687C121.531 0.886256 160.966 0.966825 161.03 0.966825C161.157 0.886256 161.411 0.805687 161.474 0.886256V0.966825C161.538 1.20853 161.728 1.20853 161.791 1.04739C161.855 0.64455 162.109 0.64455 162.299 0.805687L162.49 0.966825C162.68 0.886256 162.997 0.805687 163.251 0.725119L163.442 0.966825C163.632 1.20853 163.823 1.2891 164.076 1.04739C164.076 1.04739 164.203 1.04739 164.203 1.12796L164.394 1.36967C164.457 1.2891 164.584 1.12796 164.648 0.966825H164.965C165.282 1.04739 165.536 1.04739 165.6 1.04739C165.663 1.04739 165.854 0.966825 165.981 0.966825C166.108 0.966825 166.552 1.2891 166.742 1.12796C166.869 1.04739 167.377 0.886256 167.441 1.04739C167.504 1.20853 168.075 0.886256 168.393 0.886256C168.647 0.886256 169.345 1.04739 169.345 0.966825C169.345 0.886256 169.472 0.563981 169.535 0.725119V0.886256C169.535 0.966825 169.726 1.04739 169.979 1.04739C170.17 1.04739 170.678 1.2891 170.551 1.36967C170.424 1.45024 169.027 1.53081 168.71 1.61137C168.393 1.69194 168.456 1.85308 168.647 1.85308L168.837 1.93365C168.9 1.85308 169.091 1.69194 169.218 1.61137C169.408 1.53081 169.599 2.09479 169.726 2.09479C169.789 2.09479 169.916 1.93365 169.853 1.77251V1.69194C169.916 1.36967 169.916 1.45024 169.726 1.36967L169.599 0.886256C169.408 0.966825 169.154 1.04739 169.154 1.04739H169.091L168.837 1.20853C169.091 1.12796 169.472 1.20853 169.726 1.36967C169.979 1.53081 170.487 1.61137 170.678 1.53081C170.805 1.45024 171.376 1.61137 171.503 1.53081C171.63 1.45024 171.63 1.12796 171.566 1.04739C171.566 1.04739 171.312 0.886256 171.249 0.886256C171.122 0.886256 170.995 0.805687 171.122 0.725119C171.249 0.64455 171.693 0.322275 171.693 0.322275C171.693 0.241706 172.011 0.322275 172.074 0.322275C172.138 0.322275 172.328 0.64455 172.391 0.725119C172.455 0.886256 173.026 1.12796 173.026 1.20853C173.09 1.2891 173.153 0.966825 173.09 0.886256H173.026L172.836 0.805687C172.645 0.725119 172.518 0.563981 172.582 0.402844V0.322275C172.518 0.241706 172.455 0.0805687 172.645 0.161137L172.899 0.241706C173.217 0.322275 173.597 0.402844 173.724 0.402844C173.915 0.483412 174.677 0.241706 174.74 0.161137C174.867 0.0805687 175.057 0.0805687 175.248 0L175.375 0.0805687H175.438L175.502 0.161137C175.629 0.322275 175.756 0.322275 175.819 0.241706C175.883 0.161137 176.2 0.161137 176.327 0.241706C176.454 0.322275 176.962 0.161137 177.152 0.322275L177.342 0.483412C177.342 0.483412 177.279 0.64455 177.279 0.725119V0.805687C177.279 0.886256 177.342 0.805687 177.406 0.64455C177.469 0.483412 177.914 0.322275 177.85 0.322275C177.85 0.241706 177.914 0.161137 178.041 0.161137C178.168 0.161137 178.739 0.402844 178.993 0.483412C179.247 0.563981 179.945 0.322275 179.945 0.402844C179.945 0.483412 180.135 0.483412 180.072 0.563981C180.072 0.64455 179.881 0.725119 179.818 0.805687C179.754 0.886256 179.945 1.45024 180.326 1.53081L180.453 1.20853L180.58 0.966825C180.389 0.563981 180.389 0.241706 180.643 0.241706L180.706 0.322275C180.833 0.483412 180.897 0.725119 181.151 0.725119C181.151 0.725119 181.151 0.725119 181.151 0.805687C181.214 1.20853 181.214 1.20853 181.595 1.2891H181.786C182.039 1.36967 182.23 1.2891 182.23 1.12796C182.23 0.966825 182.293 0.483412 182.42 0.483412L182.547 0.64455C182.674 0.805687 182.674 0.966825 182.547 1.04739C182.42 1.04739 182.42 1.53081 182.547 1.53081C182.674 1.53081 182.992 1.2891 183.055 1.2891C183.118 1.36967 183.309 1.53081 183.372 1.45024H183.436C183.499 1.36967 183.563 1.2891 183.626 1.20853C183.69 1.12796 184.007 1.45024 184.071 1.36967C184.134 1.2891 184.388 1.04739 184.515 1.12796C184.642 1.20853 185.023 1.2891 185.086 1.20853C185.15 1.12796 185.34 0.966825 185.404 1.04739C185.404 1.12796 185.594 1.45024 185.657 1.45024H185.721L186.165 1.20853C186.546 1.45024 186.927 1.69194 186.99 1.69194C187.054 1.77251 187.244 1.85308 187.244 1.77251C187.244 1.77251 187.308 1.53081 187.308 1.45024C187.308 1.2891 187.689 1.45024 187.815 1.45024C187.942 1.53081 188.196 1.45024 188.196 1.53081C188.196 1.61137 188.577 1.45024 188.641 1.36967C188.768 1.2891 189.212 1.20853 189.339 1.12796L189.402 1.04739C189.466 1.04739 189.529 0.966825 189.529 0.966825L189.91 1.36967C189.974 0.966825 190.164 0.725119 190.354 0.805687C190.545 0.886256 190.862 1.45024 190.862 1.36967C190.862 1.2891 190.926 1.12796 190.989 1.04739C191.116 1.20853 191.307 1.2891 191.433 1.45024C191.497 1.53081 191.37 1.61137 191.37 1.77251V1.85308C191.37 1.93365 191.497 2.09479 191.56 2.09479L191.624 2.01422C191.878 1.77251 192.005 1.85308 192.068 2.17536C192.195 2.17536 192.322 2.09479 192.322 2.01422C192.322 1.93365 192.322 1.69194 192.259 1.69194C192.195 1.69194 192.322 1.36967 192.449 1.36967C192.576 1.36967 192.83 1.77251 192.893 2.01422V2.25592C192.893 2.33649 192.766 2.49763 192.639 2.49763H192.322C191.941 2.41706 191.624 2.49763 191.687 2.5782C191.687 2.73934 192.259 2.81991 192.322 2.90047C192.386 3.06161 192.449 3.30332 192.449 3.38389C192.449 3.46446 192.322 3.78673 192.259 3.94787L192.195 4.109C192.068 4.27014 191.941 4.43128 191.751 4.51185C191.751 4.51185 191.687 4.35071 191.687 4.18957C191.687 4.02844 191.433 3.54502 191.307 3.62559C191.18 3.70616 190.926 4.02844 190.989 4.109L191.116 4.27014C191.18 4.35071 191.243 4.43128 191.18 4.43128C191.116 4.51185 191.053 4.67299 191.116 4.75355C191.18 4.83412 192.322 4.99526 192.259 5.07583C192.195 5.07583 192.132 5.23697 192.259 5.1564C192.449 5.1564 192.576 5.55924 192.639 5.55924C192.703 5.55924 192.83 5.47867 192.83 5.47867C192.83 5.3981 192.83 5.31754 192.957 5.3981H193.084C193.401 5.63981 193.528 5.80095 193.401 5.80095C193.274 5.80095 192.893 5.96209 192.893 6.04265C192.893 6.12322 193.02 6.36493 193.147 6.52607C193.274 6.6872 193.782 6.76777 193.782 6.6872C193.782 6.60664 194.036 6.52607 194.226 6.60664C194.353 6.6872 194.671 6.6872 194.607 6.52607C194.544 6.36493 194.988 5.72038 195.178 5.3981H195.686C195.75 5.1564 195.877 5.07583 195.877 5.1564C195.877 5.23697 196.004 5.55924 196.067 5.47867C196.13 5.3981 196.384 5.23697 196.575 5.3981C196.702 5.55924 197.21 5.80095 197.4 5.80095C197.527 5.72038 197.971 5.3981 198.352 5.47867L198.669 5.55924C198.669 5.55924 198.733 5.47867 198.733 5.3981C198.796 5.31754 198.86 5.23697 198.923 5.23697H199.114C199.05 5.3981 198.987 5.63981 198.923 5.72038C198.86 5.80095 198.923 6.28436 199.241 6.4455L199.431 5.96209C199.495 5.88152 199.685 5.80095 199.812 5.72038C199.875 5.72038 200.002 5.80095 200.002 5.88152C200.066 5.96209 200.066 6.12322 200.193 5.96209C200.32 5.88152 200.447 5.80095 200.51 5.96209C200.574 6.12322 200.637 6.28436 200.574 6.36493C200.51 6.60664 200.32 6.76777 200.193 6.92891L200.066 7.09005C200.129 7.25119 200.447 7.49289 200.637 7.65403C200.891 7.7346 201.335 7.81517 201.526 7.81517C201.716 7.81517 202.351 8.29858 202.478 8.45972C202.605 8.62085 203.113 8.70142 203.176 8.78199C203.24 8.86256 203.176 9.18484 203.176 9.50711L203.366 9.82939L203.43 9.90995C203.493 10.0711 203.366 10.2322 203.176 10.3128L203.049 10.4739C202.859 10.7156 202.859 10.7156 202.732 10.5545L202.668 10.4739L202.414 10.5545C202.287 10.7962 202.16 10.8768 202.097 10.7156C202.034 10.5545 201.462 10.5545 201.335 10.5545C201.208 10.5545 200.764 10.7962 200.954 10.8768C201.145 10.9573 201.526 11.2796 201.462 11.4408L201.653 11.5213L201.907 11.6825C202.097 11.4408 202.224 11.2796 202.224 11.2796C202.224 11.2796 202.351 11.4408 202.478 11.5213C202.605 11.5213 202.478 12.0047 202.287 12.0047L202.034 12.327C201.907 12.5687 201.907 12.8104 201.97 12.891C202.034 12.891 202.097 13.2133 201.907 13.455C201.716 13.6967 201.272 14.2607 201.335 14.2607C201.399 14.2607 201.526 14.4218 201.462 14.5829H201.272C201.145 14.6635 200.954 14.8246 200.891 15.0664L201.081 15.2275C201.145 15.3081 200.891 16.2749 200.828 16.2749L200.637 16.436C200.447 16.5972 200.32 16.7583 200.32 16.9194C200.32 17 200.066 17.4028 200.002 17.564L199.748 17.8863C199.875 18.128 199.939 18.5308 199.939 18.7725L199.875 19.0142L199.812 19.3365C200.066 19.3365 200.129 19.4976 200.002 19.5782C199.875 19.6588 199.431 19.981 199.241 19.981H198.733C198.542 20.2228 198.289 20.3839 198.162 20.4645C197.971 20.1422 197.781 20.6256 197.59 20.4645C197.4 20.3033 197.21 20.3033 197.019 20.2227C196.956 20.4645 196.765 20.545 196.575 20.3839C196.384 20.3033 195.94 20.545 195.94 20.545C195.813 20.3839 195.623 20.545 195.496 20.4645L195.242 20.3033C195.051 20.4645 194.671 20.3839 194.417 20.3033L194.163 20.545L194.099 20.6256C193.972 20.6256 193.592 20.4645 193.274 20.3033L192.957 20.545L192.893 20.6256C192.766 20.6256 192.576 20.6256 192.449 20.6256C192.322 20.6256 191.878 20.4645 191.814 20.4645C191.687 20.4645 191.37 20.4645 191.243 20.545C191.116 20.6256 190.545 20.545 190.354 20.545H190.101C189.974 20.545 189.847 20.545 189.783 20.4645L189.593 20.3033C189.466 20.3839 189.148 20.545 188.895 20.6256L188.704 20.7062C188.641 20.7062 188.577 20.7867 188.577 20.8673L188.45 21.0284C188.387 20.8673 188.26 20.7867 188.196 20.7867C188.133 20.7867 187.879 21.1896 187.879 21.5119V21.9147C187.435 21.9147 186.99 21.9953 186.927 21.9953L186.99 21.9147L187.371 21.5119C187.371 21.8341 187.435 22.0758 187.562 22.0758C187.689 22.0758 187.689 21.673 187.689 21.5119C187.689 21.3507 187.498 20.9479 187.435 20.9479C187.371 20.8673 187.117 21.109 186.99 21.2701C186.863 21.4313 187.562 21.9953 188.069 22.1564L188.196 21.9953L188.387 21.8341C188.514 21.5119 188.831 21.3507 189.021 21.4313C189.212 21.5119 189.72 21.8341 189.72 21.5924L189.783 21.4313V21.3507C189.91 21.3507 190.037 21.3507 190.037 21.4313C190.037 21.5119 190.037 21.673 190.101 21.673C190.164 21.673 190.418 21.7536 190.354 21.8341H190.101C189.91 21.9953 189.847 22.237 190.037 22.237L190.101 22.1564L190.354 21.9147C190.608 21.9147 190.989 21.9953 191.116 21.9953C191.243 22.0758 191.624 21.7536 191.687 21.7536H191.751L191.878 21.8341C192.005 21.9147 192.259 21.9953 192.449 21.9147L192.576 22.0758C192.639 22.1564 192.766 22.0758 192.83 22.0758H192.893C192.957 22.0758 193.02 22.1564 193.02 22.237V22.3981C193.02 22.5592 192.893 22.801 192.766 23.0427H192.259C191.878 23.0427 191.941 23.2844 192.386 23.6066H193.02C193.147 23.4455 193.338 23.2844 193.465 23.2844L193.655 23.5261C193.655 23.8483 193.782 24.09 193.845 24.2512H193.972C194.036 24.2512 194.099 24.09 194.036 24.0095V23.9289C193.972 23.8483 193.782 23.8483 193.655 23.9289L193.465 23.8483C193.338 23.8483 193.211 24.0095 192.957 23.9289L192.639 23.8483C192.195 23.9289 191.751 24.2512 191.624 24.4123L191.878 24.7346C192.005 24.7346 192.322 24.5735 192.576 24.2512L192.957 24.4123L193.592 24.8957L193.909 24.4929C193.782 24.2512 193.719 23.8483 193.782 23.7678C193.845 23.6066 194.226 23.3649 194.417 23.6066L194.48 23.7678C194.544 23.8483 194.48 24.0095 194.417 24.09L194.353 24.1706C194.29 24.5735 194.417 24.8957 194.607 24.8152C194.798 24.7346 195.115 25.3792 195.051 25.4597C194.988 25.5403 194.671 25.8626 194.861 25.782C195.051 25.7014 196.702 25.4597 197.019 25.3791C197.273 25.218 196.956 25.1374 196.575 25.218L196.257 25.3791L196.194 25.4597C196.067 25.4597 196.004 25.4597 196.004 25.3791C196.004 25.2986 196.004 25.1374 195.877 25.1374C195.75 25.2986 195.686 25.4597 195.559 25.6209L195.496 25.7014C195.559 25.8626 195.813 26.0237 196.004 26.1043C196.194 26.1848 196.511 25.7014 196.575 25.7014C196.638 25.6209 196.765 25.7014 196.829 26.0237L197.146 25.8626L197.336 25.782C196.956 25.7014 196.321 25.6209 196.004 25.4597C195.686 25.3792 195.686 24.9763 195.813 24.8957C195.877 24.8152 196.13 24.4929 196.13 24.4929C196.194 24.654 196.194 24.8957 196.257 24.9763L196.511 25.1374C196.511 24.8957 196.575 24.654 196.638 24.5735C196.702 24.4929 197.463 24.654 197.971 24.8152L198.479 24.4929L198.669 24.4123C198.669 24.5735 198.669 24.8152 198.733 24.8152C198.796 24.8957 199.05 24.9763 199.05 24.8957C199.05 24.7346 199.304 24.5735 199.495 24.654C199.685 24.7346 199.558 25.3792 199.622 25.4597C199.748 25.5403 200.32 25.6209 200.828 25.3791L201.272 25.218H201.335C201.462 25.3791 201.653 25.5403 201.653 25.4597C201.716 25.3792 201.843 25.2986 201.843 25.218L201.653 25.0569C201.462 24.8957 201.208 24.8152 201.081 24.8152H200.954C200.891 24.8152 200.828 24.8152 200.764 24.8152C200.383 24.5735 200.447 24.8957 200.447 25.1374V25.218C200.383 25.2986 200.383 25.218 200.383 25.0569C200.383 24.8957 200.002 24.8957 199.939 24.8152V24.7346C199.939 24.654 200.066 24.5735 200.129 24.5735C200.32 24.654 200.51 24.2512 200.764 24.5735C201.018 24.4123 201.272 24.3318 201.272 24.4929L201.335 24.5735H201.399C201.526 24.4929 201.716 24.4123 201.843 24.3318C201.97 24.2512 202.351 24.09 202.351 24.2512C202.414 24.4123 202.541 24.7346 202.605 24.654H202.668L202.986 24.5735C203.366 24.4123 203.811 24.4123 204.001 24.4929C204.001 24.8152 204.128 25.1374 203.874 25.3791C203.874 25.3791 203.874 25.5403 203.938 25.6209C204.001 25.6209 204.128 25.6209 204.128 25.6209C204.192 25.4597 204.255 25.2986 204.382 25.218L204.446 25.1374C204.509 25.0569 204.572 25.0569 204.636 25.1374C204.636 25.218 204.826 25.5403 204.89 25.5403C204.953 25.5403 205.207 25.5403 205.271 25.6209C205.334 25.7014 205.525 25.782 205.588 25.782C205.588 25.7014 205.715 25.6209 205.778 25.7014C205.842 25.782 206.223 25.9431 206.35 25.7014L206.54 25.5403C206.667 25.7014 206.731 25.8626 206.667 25.9431C206.604 26.0237 206.477 26.2654 206.604 26.2654C206.731 26.2654 206.984 26.4265 206.921 26.5071C206.857 26.5877 206.857 26.91 206.984 26.9905C207.111 27.0711 207.238 27.2322 206.921 27.3934L206.667 27.5545C206.604 27.6351 206.477 27.7156 206.477 27.7962C206.477 27.8768 206.477 28.0379 206.477 28.1185C206.54 28.1991 206.667 28.1991 206.794 28.1991L206.984 28.1185C206.984 27.9573 207.048 27.7156 207.111 27.6351H207.175C207.365 27.5545 208 27.7962 208 28.0379V28.1185C207.873 28.1991 207.683 28.3602 207.556 28.4408C207.429 28.5213 207.111 28.9242 207.111 28.9242C207.111 29.0047 206.984 29.0047 206.921 28.763H206.731C206.54 28.9242 206.54 29.0853 206.604 29.1659C206.667 29.2464 206.984 29.8104 206.984 30.2133V31.0995C206.604 31.3412 206.286 31.5024 206.286 31.4218C206.286 31.3412 206.159 31.1801 206.096 31.2607C206.032 31.3412 206.032 31.7441 205.969 31.7441C205.905 31.7441 205.651 31.9052 205.778 32.0664H205.842C205.969 32.0664 206.159 31.9052 206.286 31.9052C206.413 31.9052 206.604 31.8246 206.604 32.0664C206.604 32.2275 206.54 32.3886 206.477 32.3886L206.223 32.4692C205.969 32.5498 205.715 32.3081 205.778 31.9052L205.334 31.9858L205.017 32.0664C205.144 32.3886 205.144 32.6303 205.017 32.6303C204.89 32.6303 204.446 32.6303 204.446 32.4692C204.446 32.3886 204.319 32.2275 204.192 32.3081C204.065 32.4692 203.747 32.7915 203.747 32.6303C203.747 32.5498 203.62 32.2275 203.557 32.3081C203.493 32.3886 202.986 32.6303 202.668 32.6303L202.16 32.9526C201.907 32.9526 201.526 32.9526 201.272 32.9526H200.954C200.891 32.9526 200.574 32.9526 200.32 32.872C200.066 32.7915 199.304 33.0332 199.241 32.9526C199.177 32.9526 198.86 32.872 198.733 32.872C198.606 32.872 198.162 32.872 198.035 32.7915C197.908 32.7109 197.4 33.1137 197.21 33.1943L197.146 32.7915V32.6303C196.956 32.7109 196.765 32.7915 196.638 32.872C196.511 32.9526 196.321 33.1137 196.257 33.0332C196.194 32.9526 195.686 33.0332 195.559 33.1137C195.432 33.1137 194.988 33.0332 194.924 33.0332C194.861 33.0332 194.607 33.1943 194.544 33.2749C194.48 33.3554 194.226 33.1943 194.163 33.1943C194.099 33.1943 193.719 33.2749 193.528 33.3554C193.274 33.5166 192.513 33.1137 192.259 33.1137C192.005 33.1137 191.37 33.5166 191.307 33.5166C191.18 33.5166 190.799 33.5166 190.672 33.6777L190.354 33.436C190.227 33.3555 189.91 33.5166 189.72 33.5166C189.529 33.5166 189.339 33.436 189.148 33.436C189.021 33.436 188.895 33.5166 188.704 33.5166L188.387 33.5972C188.387 33.3554 188.387 33.2749 188.387 33.436C188.387 33.5972 187.879 33.436 187.689 33.5166H187.498L186.8 33.436C186.038 33.3555 185.213 33.3554 184.896 33.3554C184.642 33.3554 183.88 33.5972 183.817 33.5972C183.753 33.5972 183.499 33.6777 183.245 33.6777L183.182 33.5972C182.992 33.3554 182.738 33.5972 182.547 33.5166L182.293 33.3554C182.039 33.3554 181.722 33.3554 181.532 33.3554C181.405 33.3554 180.833 33.5972 180.453 33.6777L180.135 33.5166L179.945 33.436C179.627 33.5166 179.31 33.5166 179.183 33.5166C179.056 33.436 178.802 33.5972 178.739 33.5166C178.675 33.436 178.421 33.2749 178.294 33.3554C178.168 33.436 177.66 33.6777 177.533 33.6777C177.406 33.6777 177.025 33.5972 176.962 33.5166C176.835 33.436 176.263 33.6777 175.883 33.7583C175.502 33.8389 174.55 33.5972 174.486 33.6777C174.423 33.7583 174.105 33.5166 173.978 33.5166C173.915 33.5166 173.661 33.5972 173.661 33.5166C173.597 33.436 173.534 33.3555 173.471 33.436C173.471 33.5166 173.217 33.5972 173.09 33.5166C172.899 33.436 172.391 33.6777 172.265 33.6777L172.201 33.5972C171.884 33.3554 171.693 33.3554 171.376 33.5972C171.122 33.7583 170.868 33.3555 170.678 33.436C170.424 33.5972 170.17 33.6777 169.979 33.5972C169.789 33.5166 169.726 33.5166 169.599 33.5972C169.535 33.5972 169.281 33.5166 169.281 33.5166C169.154 33.7583 169.027 33.436 168.9 33.5166C168.773 33.6777 168.773 33.5972 168.647 33.5166L168.456 33.3554C168.202 33.436 167.631 33.5166 167.187 33.5972C166.742 33.6777 165.282 33.5972 165.092 33.6777H164.394C163.886 33.6777 163.315 33.7583 163.188 33.8389C163.061 33.9194 162.426 33.7583 162.172 33.6777H161.918C161.664 33.6777 161.347 33.6777 161.03 33.6777H121.594C121.531 33.5166 121.467 33.436 121.404 33.436C121.404 33.436 121.213 33.5166 121.15 33.5972C121.086 33.6777 120.769 33.8389 120.705 33.7583C120.642 33.6777 120.007 33.8389 119.563 33.8389C119.119 33.8389 117.849 33.6777 117.722 33.6777C117.595 33.6777 117.087 33.8389 116.961 33.6777C116.834 33.5972 116.326 33.8389 116.135 33.8389C116.008 33.8389 115.437 33.9194 115.247 33.9194C115.056 33.9194 114.485 33.7583 114.358 33.7583C114.231 33.8389 113.723 33.8389 113.596 33.7583C113.469 33.6777 112.771 33.8389 112.517 33.7583L112.263 33.6777L112.073 33.5972C111.692 33.6777 111.057 33.8389 110.613 33.8389C110.169 33.8389 108.646 33.9194 108.328 33.9194L108.201 33.436C107.947 33.436 107.82 33.5166 107.82 33.5972C107.82 33.6777 107.82 33.8389 107.693 33.8389C107.566 33.8389 106.995 33.9194 106.805 34L106.424 33.7583C106.36 33.6777 106.234 33.5166 106.107 33.5166C106.043 33.5972 105.98 33.7583 105.98 33.7583L105.281 33.5972C104.52 33.7583 103.885 33.7583 103.885 33.6777C103.885 33.5972 103.695 33.2749 103.568 33.3554H103.441C103.123 33.3554 103.25 33.5972 103.123 33.6777C102.996 33.7583 102.869 33.6777 102.742 33.7583C102.616 33.7583 102.425 33.8389 102.298 33.9194H102.235C102.108 33.8389 101.917 33.8389 101.79 33.7583C101.663 33.6777 101.283 33.8389 101.156 33.8389C101.092 33.9194 100.648 33.7583 100.521 33.8389C100.394 33.9194 99.6958 33.9194 99.3149 34L98.9976 33.6777C98.9341 33.5972 98.6802 33.5972 98.6167 33.6777L98.2994 33.9194C97.982 33.8389 97.6012 33.6777 97.4107 33.6777V33.7583C97.2203 34.1611 96.9664 33.6777 96.776 33.8389L96.5856 34C96.3952 33.8389 95.9509 33.6777 95.6335 33.5972L95.3796 33.8389L95.1892 34C95.0622 33.7583 94.7449 33.5972 94.5544 33.6777L94.491 33.7583C94.364 34 94.2371 33.6777 94.1101 33.7583H94.0467C93.9832 33.7583 93.7293 33.7583 93.4754 33.6777C93.2215 33.5972 91.8251 33.8389 91.7616 33.8389C91.5712 33.6777 91.3808 33.5166 91.1904 33.7583C90.9365 34 90.9365 33.5972 90.6826 33.6777L90.4921 33.7583C90.2383 33.6777 89.7305 33.5972 89.2862 33.6777H88.9053C88.6514 33.6777 88.3341 33.7583 88.2706 33.5972L88.0802 33.2749C87.8897 33.436 87.6993 33.5166 87.6358 33.5166C87.5724 33.5166 87.3185 33.5166 87.1281 33.5166H86.9376C86.8107 33.5166 86.6203 33.5972 86.4933 33.6777C86.4299 33.5972 86.3664 33.436 86.3029 33.3554C86.2394 33.2749 86.049 33.5166 85.9855 33.6777H85.6047C85.3508 33.6777 84.97 33.7583 84.7161 33.7583L84.2083 33.5972C83.9544 33.5972 83.7005 33.5166 83.637 33.436C83.637 33.3555 83.5736 33.1137 83.5736 33.1137C83.5736 33.1137 83.5101 33.1943 83.5101 33.2749C83.5101 33.3554 83.3197 33.6777 83.1927 33.5972L83.1292 33.5166C82.8753 33.1943 82.8754 33.1943 82.558 33.5166H82.4945C82.431 33.5166 82.1771 33.5972 81.8598 33.5972C81.5424 33.5972 80.7173 33.2749 80.5903 33.3554C80.4634 33.436 80.2729 33.2749 80.3999 33.1943C80.4634 33.1137 80.6538 32.7915 80.4634 32.872C80.2729 32.9526 79.8921 33.2749 79.8286 33.3554H79.7652C79.6382 33.3554 79.5113 33.2749 79.3843 33.2749C79.2574 33.2749 79.1304 33.3554 79.067 33.3554C78.94 33.3554 78.7496 33.3554 78.6226 33.3554L78.2418 33.1137C77.7975 33.1943 77.3532 33.3554 77.2262 33.3554L77.0993 33.2749C76.9089 33.1943 76.4645 33.1137 76.2741 33.1943L75.8933 33.3554C75.5759 33.1943 75.2586 33.1137 75.1951 33.1943C75.1316 33.2749 74.3064 33.1943 73.7987 33.1943H73.037C72.6562 33.1943 72.0849 33.2749 71.7675 33.3554L71.4502 33.2749C71.2597 33.1943 70.8154 33.0332 70.6885 32.9526C70.625 32.872 70.4346 32.9526 70.4346 32.9526C70.3711 33.2749 70.2442 33.3555 69.9903 33.1137C69.9903 33.1137 69.6729 33.1943 69.3555 33.2749L69.1016 33.1943C68.7843 33.1137 68.5304 33.0332 68.2765 33.2749C68.213 33.3554 68.0226 33.2749 67.8957 33.1943H67.7687C67.6418 33.1137 67.4513 33.1943 67.3879 33.2749C67.2609 33.3554 66.6897 33.1943 66.5627 33.1943C66.4358 33.1943 65.7376 33.1943 65.4202 33.2749L65.1663 33.0332C65.1663 33.0332 65.1028 33.1137 65.0394 33.1137L64.3411 33.2749C63.9603 33.1943 63.5795 33.1137 63.516 33.0332C63.4525 33.0332 62.9447 33.1137 62.5004 33.1137L62.0561 33.1943H61.9926C61.9292 33.0332 61.8022 32.9526 61.8022 33.0332C61.8022 33.1943 61.0405 33.2749 60.5962 33.2749L60.3423 33.1137C60.2154 33.1943 59.9615 33.1943 59.7076 33.1943L59.4537 33.1137C59.2633 33.0332 59.1363 33.5166 58.8824 33.1943C58.819 33.1137 58.692 33.1943 58.6286 33.1943C58.5651 33.1943 58.5016 33.2749 58.4381 33.1943H58.3112C58.1842 33.1943 57.9303 33.1943 57.7399 33.2749L57.613 33.1137C57.4226 32.7915 57.2956 33.2749 57.0417 33.1137C56.7878 32.9526 56.9148 32.6303 56.7878 32.4692C56.7244 32.3886 56.5339 32.3886 56.407 32.4692L56.2166 32.5498C56.0261 32.7109 55.8992 32.872 55.9627 32.9526C56.0261 32.9526 55.9627 33.1137 55.7723 33.1137L55.5818 33.0332C55.4549 33.0332 55.3279 32.9526 55.201 32.9526H54.8202C54.5663 32.6303 54.3758 32.4692 54.3758 32.6303C54.3758 32.7109 54.1854 33.1943 53.9315 33.1943C53.6776 33.1943 53.1698 32.872 53.1698 32.872L53.0429 33.0332C52.9794 33.0332 52.7255 33.1137 52.4716 33.1137C52.2178 33.1137 51.5195 32.9526 51.4561 32.872C51.3926 32.7915 51.1387 32.7915 51.1387 32.872C51.1387 32.9526 50.7579 33.0332 50.7579 32.9526C50.7579 32.9526 50.6944 32.7109 50.6309 32.4692L50.2501 32.7109C50.0597 32.872 49.8692 32.872 49.6788 32.9526H49.5519C49.3615 32.9526 49.2345 32.7915 49.2345 32.6303V32.4692C49.2345 32.3081 49.2345 32.1469 49.0441 32.1469C48.7902 32.1469 48.9171 32.3886 48.9171 32.4692V32.5498C48.8537 32.6303 48.7902 32.6303 48.7267 32.5498C48.6632 32.4692 48.4094 32.3886 48.2824 32.5498V32.7915C48.2189 32.872 48.1555 32.872 48.092 32.872H48.0285C47.965 32.7915 47.9016 32.6303 47.8381 32.4692C47.7746 32.3081 47.4573 32.2275 47.5207 32.3081C47.5842 32.3886 47.5207 32.7109 47.1399 32.9526L46.8225 32.6303L46.6956 32.4692C46.5686 32.5498 46.3782 32.6303 46.2513 32.7109C46.1243 32.7915 45.5531 32.4692 45.4896 32.4692H45.3626C45.2992 32.4692 45.2992 32.5498 45.2992 32.6303C45.2992 32.6303 45.1087 32.872 44.7279 32.9526L44.5375 32.7915L44.2201 32.6303C43.9027 32.7109 43.7123 32.7109 43.7123 32.6303C43.7758 32.5498 43.5854 32.0664 43.2045 31.8246L42.7602 32.1469L42.4429 32.3081C41.9986 32.1469 41.6812 31.9858 41.8081 31.9858L41.9351 31.6635C42.2524 31.7441 42.5063 31.8246 42.5698 31.8246C42.6333 31.8246 42.6333 31.5024 42.3159 31.5829V31.5024L41.9351 31.1801C41.8081 31.5024 41.7447 31.6635 41.6812 31.5829C41.6812 31.5024 41.5542 31.3412 41.4908 31.3412C41.4273 31.3412 41.1734 31.5024 41.1734 31.5829C41.1734 31.6635 40.9195 31.9052 40.7926 31.9858C40.6656 32.1469 40.4117 32.7915 40.4117 32.6303C40.4117 32.4692 40.2213 32.1469 40.1578 32.1469C40.0309 32.1469 39.7135 32.0664 39.65 32.0664C39.5866 32.0664 39.3961 32.1469 39.5231 32.1469C39.5866 32.2275 39.8405 32.3886 39.9039 32.4692V32.5498C39.9039 32.5498 39.8405 32.6303 39.777 32.6303L39.5866 32.5498C39.3327 32.4692 39.2057 32.3081 39.2057 32.1469C39.2057 31.9858 39.1423 31.7441 39.0153 31.8246C38.8884 31.9052 38.8249 32.3081 38.7614 32.3886C38.6979 32.4692 38.3171 32.4692 38.3171 32.4692C38.2536 32.4692 38.1902 32.1469 38.3171 31.9052C38.444 31.6635 38.5075 31.0995 38.3171 31.3412C38.1267 31.5829 37.6189 32.1469 37.4919 32.0664C37.365 31.9858 37.1111 32.3081 37.1111 32.3886C37.0476 32.4692 36.6033 32.5498 36.5398 32.3886C36.4764 32.2275 37.0476 31.9858 37.1746 31.9052C37.3015 31.8246 37.7458 31.6635 37.7458 31.5829C37.8093 31.5024 37.8093 31.2607 37.8093 31.1801C37.7458 31.1801 37.6189 31.1801 37.5554 31.1801L37.4285 31.3412C37.3015 31.5024 37.1746 31.6635 37.1746 31.6635C37.1111 31.6635 37.0476 31.5829 36.9842 31.4218C36.9842 31.3412 36.7937 31.019 36.7303 30.9384C36.6668 30.8578 36.4764 30.6161 36.4129 30.6967C36.3494 30.6967 36.159 30.9384 36.0321 31.0995H36.4764C36.6033 31.3412 36.7303 31.5829 36.7303 31.5829C36.7303 31.5829 36.6033 31.7441 36.4764 31.7441H36.2225C36.0955 31.7441 35.9686 31.8246 35.9686 31.9052C35.9051 31.9052 35.7147 31.8246 35.6512 31.9052C35.5877 31.9858 35.3973 31.9858 35.3339 31.9052C35.2704 31.7441 34.953 31.5024 34.7626 31.6635L34.5087 31.8246C34.3818 31.7441 34.1913 31.5829 34.0009 31.4218L33.747 31.0995C33.5566 31.1801 33.3027 31.3412 33.2392 31.4218L33.0488 31.6635C32.9219 31.9052 32.7314 31.9858 32.541 31.9052C32.3506 31.8246 32.0332 31.5024 31.9063 31.5024C31.7794 31.4218 31.462 31.4218 31.5255 31.5829L31.462 31.6635C31.3985 31.7441 31.2081 31.8246 31.1446 31.9052C31.2081 31.9858 31.2081 32.1469 31.1446 32.1469C31.0811 32.1469 30.9542 32.0663 30.8907 31.9858C30.8272 31.9052 30.3829 31.5024 30.0021 31.5829L30.0656 32.0664C30.0656 32.2275 29.6847 32.3081 29.6213 32.1469C29.5578 31.9858 29.5578 31.9052 29.7482 31.8246C29.8117 31.8246 29.9386 31.6635 29.8751 31.5829L29.8117 31.3412C29.7482 31.5024 29.4943 31.5829 29.3039 31.5024C29.1135 31.5024 28.5422 31.7441 28.4153 31.6635H28.3518C28.2883 31.6635 28.0979 31.5829 28.0344 31.6635L27.7805 31.8246C27.5266 31.7441 27.2093 31.5829 27.2093 31.5829C27.1458 31.5829 26.8919 31.5829 26.638 31.6635L26.4476 31.5024L26.3841 31.4218C26.2572 31.3412 26.1302 31.4218 26.1302 31.5829C26.1302 31.6635 25.8763 32.0664 25.6224 32.0664C25.3685 32.0664 24.7973 31.9858 24.7338 32.0664V32.1469L24.6703 32.2275C24.6069 32.3081 24.6069 32.3081 24.5434 32.2275V32.1469L24.4799 32.3081C24.4164 32.2275 24.1626 32.2275 23.9087 32.3886L23.7182 32.1469C23.5913 32.3081 23.4009 32.3886 23.2739 32.3081C23.147 32.2275 22.8296 32.3081 22.6392 32.3081C22.4488 32.2275 21.941 32.4692 21.814 32.5498C21.6871 32.5498 21.2428 32.4692 21.0524 32.5498L20.8619 32.3081L20.6715 32.1469C20.4176 32.2275 20.0368 32.3886 19.7829 32.3886L19.4021 32.5498C19.2116 32.4692 18.9577 32.2275 18.8308 32.1469L18.6404 32.3886C18.5134 32.6303 18.3865 32.3081 18.2595 32.3081C18.1326 32.3081 17.8787 32.4692 17.8152 32.4692C17.5613 32.3081 17.3709 32.3081 17.117 32.3081C16.7997 32.3081 16.4823 32.1469 16.2284 32.4692C16.1649 32.4692 15.9745 32.3886 15.8476 32.3081C15.7206 32.2275 15.1493 32.1469 14.8955 32.3081L14.6416 32.2275C14.1972 32.1469 13.6895 31.9858 13.2451 31.8246C13.1182 31.8246 13.1182 31.5829 12.9913 31.5024C12.9278 31.4218 12.8643 31.3412 12.8008 31.3412C12.6739 31.3412 12.5469 31.4218 12.4835 31.4218H12.42C12.3565 31.2607 12.2296 31.0995 12.0392 31.019C11.8487 30.9384 11.4044 31.019 11.2775 31.0995L11.1505 31.019C10.8966 30.8578 10.6427 30.7773 10.135 30.7773C10.0715 30.7773 10.008 30.6161 10.008 30.5355C10.135 30.3744 10.3254 30.2938 9.94454 30.2133C9.75412 30.2133 9.81759 29.9716 9.94454 29.891L10.008 29.8104C10.0715 29.7299 10.0715 29.5687 10.008 29.4882C9.94454 29.4076 10.1984 29.2464 10.2619 29.327C10.3254 29.4076 10.7062 29.2464 10.7697 29.4076L10.8332 29.4882C10.8966 29.5687 10.8332 29.6493 10.8332 29.7299C10.8332 29.8104 10.9601 29.8104 11.0236 29.891H11.0871C11.1505 29.891 11.2775 29.7299 11.4044 29.5687C11.5314 29.4076 11.7218 28.8436 11.6583 28.763C11.5948 28.6019 11.0871 28.763 10.9601 28.6825V28.6019L10.8966 28.3602C10.7697 28.1185 10.6427 28.0379 10.5793 28.1991C10.5158 28.2796 10.4523 28.763 10.3254 28.6019C10.1984 28.4408 9.5637 28.1991 9.43675 28.1185C9.3098 28.0379 9.62717 27.6351 9.75412 27.7962C9.88106 27.8768 10.2619 28.1185 10.3254 28.1185C10.3889 28.0379 10.5158 27.7962 10.5793 27.6351L10.8332 27.7962C10.8966 27.8768 11.0871 27.8768 11.0871 27.7962C11.1505 27.6351 11.1505 27.5545 10.9601 27.4739L10.8332 27.3934C10.7062 27.1517 10.7062 26.91 10.8332 26.8294L10.9601 26.6682C10.9601 26.5071 10.8332 26.4265 10.7697 26.346C10.7062 26.346 10.3254 26.1043 10.008 26.0237L9.81759 26.7488C9.50022 26.6682 9.3098 26.5071 9.43675 26.4265C9.5637 26.346 9.69064 26.2654 9.69064 26.1848C9.62717 26.1848 9.43675 25.9431 9.3098 25.782L9.05591 25.6209C8.92896 25.7014 8.67507 25.6209 8.54812 25.5403H8.42118C8.23076 25.5403 8.10381 25.5403 7.91339 25.5403C7.59602 25.5403 7.34213 25.4597 7.02477 25.5403C6.77087 25.6209 6.58045 25.3792 6.26309 25.4597C6.13614 25.4597 5.94572 25.3791 5.81877 25.2986L5.62835 25.1374C5.37446 25.1374 4.99362 25.0569 4.67625 25.0569C4.48583 24.9763 3.53373 24.4929 3.21637 24.3318L2.899 24.2512H2.70858C2.45469 24.2512 2.13732 24.1706 2.01038 24.09L1.37564 23.6872C1.43912 23.2844 1.56606 22.8815 1.62954 22.7204L1.2487 22.801C1.05828 22.801 0.931329 22.7204 0.994802 22.5592V22.3981C1.05828 22.237 0.994802 22.0758 0.931329 21.9953C0.867856 21.9147 0.740909 21.673 0.804383 21.673C0.867856 21.5924 1.18522 21.3507 1.2487 21.2701L1.05828 21.1896C0.867856 21.109 0.804383 21.0284 0.867856 20.8673L0.994802 20.6256C0.867856 20.545 0.613963 19.981 0.487016 19.4171L0.106176 18.9336C0.233123 18.6114 0.296596 18.3697 0.16965 18.3697C0.106176 18.3697 -0.0842436 18.2085 0.0427029 18.128C0.16965 17.9668 0.042703 17.564 0.106176 17.564C0.16965 17.564 0.423543 17.2417 0.360069 17.0806L0.296596 16.9194C0.233123 16.6777 0.106176 16.5166 0.16965 16.2749C0.16965 16.1137 0.360069 15.872 0.487016 15.7109C0.613963 15.3886 0.931329 15.4692 0.994802 15.3886L1.12175 15.1469C1.31217 15.1469 1.50259 15.2275 1.56606 15.2275C1.62954 15.2275 2.07385 14.7441 2.20079 14.7441C2.32774 14.7441 2.77205 14.5829 2.899 14.5829L3.08942 14.5024C3.21637 14.5024 3.47026 14.6635 3.59721 14.5829C3.78763 14.5024 3.8511 14.5024 4.04152 14.5829C4.16847 14.6635 4.35889 14.5829 4.48583 14.5829L4.86667 14.3412C4.8032 14.5829 5.12057 14.5024 5.43793 14.1801L5.94572 14.2607H6.00919C6.13614 14.1801 6.26309 14.1801 6.32656 14.1801C6.39003 14.1801 6.83434 14.1801 7.15171 13.9384L7.59602 14.1801C7.72297 14.2607 8.10381 14.019 8.16728 14.0995L8.42118 14.3412C8.6116 14.1801 8.92896 13.9384 9.11938 13.8578L9.3098 13.7773C9.50022 13.6967 9.75412 13.6967 9.94454 13.7773C10.2619 13.8578 10.5793 13.9384 10.8966 13.6967L11.1505 13.5355C11.4679 13.5355 11.7853 13.5355 11.8487 13.6161L11.9757 13.7773C12.0392 13.9384 12.2296 13.8578 12.3565 13.6967C12.4835 13.5355 13.1817 13.6967 13.4356 13.6967C13.6895 13.6967 14.3877 13.3744 14.5781 13.2938H14.7685C15.1493 13.2938 15.3398 13.2938 15.5302 13.2133C15.5937 13.2133 15.6571 13.1327 15.7206 13.1327H15.8476C15.9745 13.0521 16.2284 12.9716 16.3553 12.891H16.6092C16.7362 13.0521 16.7997 12.9716 16.7997 12.7299L17.117 12.8104C17.3074 12.8104 17.5613 12.891 17.7518 12.7299H17.8787C17.8787 12.891 17.8787 13.0521 18.0691 12.9716C18.1326 12.9716 18.1961 12.7299 18.2595 12.6493C18.45 12.5687 18.7039 12.4882 18.9577 12.4076H19.2116C19.529 12.4882 19.8464 12.4076 19.9733 12.4076C20.1003 12.327 20.5446 12.2464 20.608 12.327C20.735 12.327 21.1158 12.327 21.1158 12.327C21.1793 12.2464 21.3697 12.1659 21.3697 12.2464C21.3697 12.327 21.5601 12.4076 21.6871 12.4076C21.814 12.327 22.1949 12.2464 22.3218 12.327C22.3853 12.4076 22.7027 12.5687 22.7661 12.5687C22.8296 12.4882 23.02 12.2464 23.0835 12.1659C23.147 12.0853 23.5913 12.0853 23.7182 12.0853H24.0356C24.226 12.0853 24.6069 12.0853 24.8608 12.1659H25.0512C25.1147 12.1659 25.1781 12.1659 25.2416 12.0853L25.6859 11.763C25.9398 12.0047 26.1937 12.0853 26.1937 12.0047C26.1937 11.9242 26.3206 11.6825 26.4476 11.763H26.638C26.765 11.763 26.9554 11.6019 27.0823 11.4408H27.3997C27.5266 11.2796 27.4632 11.1185 27.3997 10.9573H27.2727C27.0823 10.8768 27.0823 11.0379 27.0189 11.1991C27.0189 11.2796 26.8284 11.2796 26.7015 11.2796C26.4476 11.3602 26.1937 11.4408 26.0668 11.3602C25.8129 11.1991 25.559 11.2796 25.3051 11.2796C25.0512 11.2796 24.7973 11.2796 24.5434 11.2796C24.2895 11.2796 24.0356 11.2796 23.7817 11.2796C23.4009 11.3602 23.2739 11.0379 23.0835 10.7962L22.8931 10.5545C22.6392 10.5545 22.3853 10.6351 22.2584 10.6351C22.1314 10.7156 21.941 10.7156 21.814 10.7156C21.6871 10.7156 21.4332 10.4739 21.3063 10.3934C21.2428 10.3128 20.7985 10.1517 20.735 10.2322L20.6715 10.3128C20.608 10.4739 20.608 10.4739 20.8619 10.4739C20.9254 10.4739 20.9889 10.4739 20.9889 10.4739C20.9889 10.5545 20.9889 10.7156 20.9254 10.7156C20.735 10.7156 20.4811 10.8768 20.4811 10.5545V10.3934C20.5446 10.1517 20.5446 9.99052 20.608 9.90995C20.608 9.82938 20.608 9.74882 20.5446 9.74882H20.4811C20.4176 9.74882 20.3542 9.74882 20.2272 9.82939L19.9098 9.90995C20.0368 10.1517 19.9733 10.3934 19.7829 10.4739C19.5925 10.5545 18.9577 10.5545 18.9577 10.4739V10.2322C19.0212 10.0711 18.9577 9.99052 18.8943 9.99052C18.8308 9.99052 18.5769 9.82938 18.5769 9.50711H18.5134L18.1326 9.74882C18.2595 9.2654 18.5134 8.86256 18.6404 8.94313L18.7673 9.0237C18.8943 9.10427 19.0212 9.18484 19.1482 9.18484C19.2116 9.18484 19.3386 9.18483 19.4021 9.10427L19.529 9.0237C19.7194 9.0237 19.9733 8.86256 20.1003 8.78199V8.62085C19.9733 8.54029 19.7194 8.37915 19.5925 8.37915L19.4655 8.45972C19.4021 8.54028 19.4655 8.78199 19.2751 8.70142L19.0847 8.62085C18.9577 8.45972 18.7673 8.45972 18.7039 8.62085C18.6404 8.78199 18.2595 8.62085 18.323 8.54029C18.323 8.45972 18.323 8.37915 18.2595 8.37915C18.1961 8.37915 17.9422 8.45972 17.9422 8.54029C17.9422 8.62085 17.8152 8.86256 17.7518 8.86256C17.6883 8.78199 17.7518 8.70142 17.6883 8.62085L17.4979 8.37915C17.1805 8.37915 16.9266 8.37915 16.8631 8.37915C16.7997 8.37915 16.7362 8.05687 16.9901 7.7346L17.3074 7.89573L17.5613 8.05687C17.8152 8.05687 18.0691 7.89574 18.0691 7.7346C18.0691 7.57346 18.0056 7.17062 17.9422 7.17062C17.8787 7.17062 17.6248 7.25119 17.6883 7.33175V7.49289C17.6883 7.57346 17.4979 7.65403 17.3709 7.65403C17.244 7.57346 16.9901 7.41232 17.117 7.33175V7.25119C17.117 7.17062 16.9901 7.00948 16.9266 6.92891C16.9266 6.92891 16.7362 7.00948 16.6727 7.00948C16.6092 7.00948 16.4823 6.92891 16.4188 6.84834C16.4188 6.84834 16.4823 6.6872 16.5458 6.6872C16.6092 6.6872 16.8631 6.76777 17.117 6.84834C17.3709 6.92891 18.1961 6.60664 18.2595 6.6872H18.323C18.3865 6.6872 18.5134 6.60664 18.5769 6.52607V6.36493C18.5134 6.28436 18.5769 6.28436 18.6404 6.20379C18.7039 6.12322 18.9577 6.12322 19.0212 6.12322C19.0847 6.20379 19.2751 6.28436 19.3386 6.20379C19.4021 6.12322 19.656 6.12322 19.7194 6.28436C19.7829 6.4455 20.0368 6.84834 20.1003 6.84834C20.1003 6.84834 20.1003 6.60664 20.0368 6.28436V5.88152C20.2272 5.72038 20.3542 5.72038 20.4176 5.72038V5.80095L20.4811 5.96209C20.5446 6.20379 20.6715 6.12322 20.7985 5.80095L20.9889 5.72038L21.1793 5.55924C21.2428 5.31754 21.3697 5.1564 21.4332 5.23697C21.4967 5.31754 21.6871 5.47867 21.8775 5.47867L22.1314 5.63981C22.3218 5.72038 22.5122 5.63981 22.5122 5.47867C22.5122 5.31754 22.5757 5.1564 22.6392 5.1564H22.7027C22.8931 5.23697 23.02 5.3981 23.2105 5.3981C23.2739 5.3981 23.4009 5.07583 23.4643 5.07583H23.6548C23.8452 5.07583 24.0356 5.07583 24.0991 5.1564C24.1626 5.1564 24.353 5.1564 24.353 4.91469V4.75355L24.4164 4.59242C24.4799 4.43128 24.8608 4.35071 25.2416 4.51185L25.6859 4.109C25.9398 3.8673 26.1302 3.46445 26.5745 3.8673C26.765 3.70616 27.0189 3.62559 27.0823 3.78673L27.2093 3.8673L27.2727 3.94787C27.3362 3.94787 27.5266 3.94787 27.6536 3.94787C27.7805 3.94787 28.1614 3.78673 28.3518 3.70616C28.4787 3.62559 29.1135 3.62559 29.3039 3.62559C29.4943 3.62559 29.9386 3.30332 30.0656 3.46446C30.1925 3.54502 30.4464 3.94787 30.3829 4.02844C30.3829 4.109 30.4464 4.43128 30.5734 4.43128H30.9542C31.1446 4.109 31.335 3.78673 31.462 3.62559C31.5889 3.46446 31.9063 3.06161 31.9698 3.14218H32.0332L32.3506 3.30332C32.2871 3.46446 32.1602 3.70616 32.0967 3.78673L31.9698 3.94787C32.0332 4.02844 32.0967 4.18957 32.1602 4.109C32.2237 4.109 32.4776 3.8673 32.7314 3.62559L33.0488 3.8673L33.1123 3.94787C33.1758 4.02844 33.3662 3.8673 33.4297 3.70616C33.4931 3.54502 33.874 3.06161 34.0009 3.14218H34.1279L34.3183 3.22275C34.5087 3.38389 34.7626 3.46446 34.8261 3.54502C34.953 3.54502 34.8895 3.94787 34.953 4.02844C35.0165 4.109 35.1434 4.109 35.2069 4.18957C35.2069 4.27014 35.4608 4.18957 35.5243 4.02844C35.5243 3.8673 35.9686 3.94787 36.0955 3.94787C36.159 3.94787 36.5398 3.78673 36.8572 3.8673H37.4285C37.7458 3.94787 37.9997 3.94787 38.0632 3.78673C38.1267 3.70616 37.8728 3.22275 37.9363 3.14218ZM197.781 7.00948C197.908 6.76777 197.844 6.52607 197.59 6.36493H197.336L197.019 6.28436C196.702 6.28436 196.511 6.36493 196.638 6.4455C196.765 6.52607 197.654 7.25119 197.781 7.00948ZM200.828 9.34597C200.891 9.2654 200.828 8.94313 200.701 8.62085H199.812C199.622 8.94313 199.558 9.34597 199.748 9.50711H199.812L200.002 9.42654C200.193 9.2654 200.383 9.18484 200.447 9.2654C200.51 9.42654 200.764 9.42654 200.828 9.34597ZM202.922 28.8436C202.986 28.8436 203.176 28.6825 203.303 28.4408C203.43 28.1991 203.049 27.6351 203.113 27.6351V27.4739C202.922 27.3934 202.732 27.3934 202.668 27.4739C202.605 27.5545 202.732 27.7962 202.795 27.8768C202.859 27.9573 202.795 28.2796 202.859 28.4408C202.922 28.5213 202.859 28.8436 202.922 28.8436ZM23.7182 8.45972C23.7182 8.62085 23.5913 8.62085 23.5278 8.54029C23.4009 8.45972 23.4643 8.78199 23.7817 8.78199H24.0356L24.4799 8.86256C24.6703 8.54029 24.6703 8.37915 24.5434 8.45972C24.4164 8.54028 23.9721 8.37915 23.9721 8.29858C23.9721 8.21801 23.9087 7.9763 23.8452 7.9763C23.7817 7.9763 23.7182 8.29858 23.7182 8.45972ZM29.7482 4.43128C29.8751 4.18957 29.6847 4.02844 29.3674 4.02844L29.1769 3.78673C29.05 3.8673 28.9231 4.02844 28.9231 4.109C28.9231 4.18957 29.3039 4.43128 29.4308 4.51185C29.4308 4.75355 29.4943 4.83412 29.6847 4.59242L29.7482 4.43128ZM190.545 4.75355C190.545 4.59242 190.481 4.51185 190.418 4.67299C190.354 4.75355 190.164 4.91469 190.037 4.83412C189.91 4.75355 189.466 4.67299 189.529 4.75355C189.593 4.83412 189.593 4.91469 189.529 4.99526C189.466 5.07583 189.402 5.23697 189.72 5.1564L189.847 5.23697L190.037 5.31754C190.418 5.23697 190.608 4.91469 190.545 4.75355ZM203.049 25.2986C203.176 25.3791 203.303 25.3791 203.303 25.218C203.366 25.0569 203.113 24.654 203.049 24.5735L202.922 24.7346L202.668 24.9763C202.414 24.8957 202.16 24.8957 202.097 24.8957V25.0569C202.224 25.1374 202.414 25.2986 202.541 25.3791H202.605C202.668 25.4597 202.986 25.218 203.049 25.2986ZM26.0668 4.75355C26.2572 4.83412 26.4476 4.83412 26.4476 4.75355C26.4476 4.67299 26.5111 4.43128 26.5111 4.35071C26.5745 4.27014 26.4476 4.109 26.2572 4.27014L26.1302 4.109C25.9398 3.94787 25.8763 4.27014 25.7494 4.35071C25.6224 4.43128 25.6224 4.59242 25.7494 4.67299C25.8129 4.83412 25.8763 4.99526 26.0668 4.75355ZM186.8 22.3981C186.736 22.4787 186.8 22.4787 186.99 22.4787C187.181 22.4787 187.625 22.801 187.815 22.801C188.006 22.801 188.069 22.3175 187.879 22.3175C187.562 22.3175 186.863 22.3981 186.8 22.3981ZM105.853 32.5498C105.726 32.4692 105.662 32.5498 105.662 32.6303C105.662 32.7109 105.599 33.0332 105.535 33.0332C105.472 33.0332 105.281 33.0332 105.281 33.1137C105.281 33.1943 105.281 33.436 105.345 33.436C105.345 33.436 105.726 33.3554 106.17 33.2749V32.9526C106.17 32.7915 105.916 32.5498 105.853 32.5498ZM179.056 1.45024C179.183 1.53081 179.374 1.53081 179.5 1.2891L179.564 1.12796C179.564 1.04739 179.564 0.886256 179.5 0.805687C179.437 0.64455 179.31 0.64455 179.12 0.725119L178.993 0.805687C178.802 0.886256 178.993 1.36967 179.056 1.45024ZM175.502 1.45024C175.756 1.36967 175.883 1.20853 175.883 1.12796C175.819 1.04739 175.438 0.805687 175.375 0.886256C175.248 0.966825 175.311 1.53081 175.502 1.45024ZM205.017 26.5071C205.08 26.346 204.953 26.2654 204.699 26.346L204.509 26.4265C204.382 26.5071 204.255 26.6682 204.446 26.8294L204.509 26.91C204.572 27.0711 204.953 26.7488 205.017 26.5071ZM41.7447 3.22275C41.5542 3.30332 41.6177 3.46446 41.9351 3.54502L42.1255 3.62559C42.3159 3.70616 42.4429 3.54502 42.5063 3.38389C42.5698 3.30332 42.5698 3.22275 42.5063 3.14218C42.5063 3.06161 41.8716 2.98104 41.8081 2.98104L41.7447 3.22275ZM19.2751 7.25119C19.2751 7.17062 19.1482 7.00948 19.0212 7.00948C18.8943 7.00948 18.7039 7.09005 18.5769 7.17062C18.45 7.33175 18.2595 7.81517 18.2595 7.89573H18.3865C18.45 7.89573 18.7673 7.7346 19.0847 7.49289L19.2751 7.25119ZM40.2213 3.70616C40.2213 3.78673 40.2848 3.8673 40.4752 3.78673C40.6021 3.70616 40.983 3.46446 41.0464 3.38389L40.9195 3.22275C40.856 3.14218 40.9195 2.90047 40.6656 2.98104L40.4752 3.06161C40.3482 3.22275 40.2213 3.62559 40.2213 3.70616ZM100.711 1.93365C100.902 2.09479 100.838 2.09479 100.711 1.93365C100.584 1.77251 100.204 1.45024 100.14 1.53081C100.077 1.69194 100.14 2.09479 100.394 2.17536L100.457 2.09479L100.711 1.93365ZM52.5986 3.38389C52.5986 3.46446 52.7255 3.46446 52.8525 3.30332C52.9794 3.14218 52.9794 2.65877 52.8525 2.73934C52.6621 2.81991 52.2812 2.90047 52.2812 2.98104C52.2812 3.06161 52.2812 3.14218 52.3447 3.14218C52.4082 3.06161 52.5986 3.30332 52.5986 3.38389ZM75.1316 2.33649C74.7508 2.33649 74.5603 2.41706 74.6873 2.65877L74.9412 2.5782C75.1951 2.49763 75.3855 2.41706 75.5759 2.33649C75.5759 2.33649 75.5759 2.17536 75.5759 2.09479L75.449 2.01422L75.1316 2.33649ZM16.8631 30.0521C16.9266 29.891 16.9901 29.5687 16.9266 29.4076L16.6727 29.4882C16.6092 29.4882 16.4823 29.7299 16.4823 29.5687C16.4188 29.327 16.3553 29.2464 16.1649 29.4076H16.1014C16.1649 29.5687 16.3553 29.8104 16.4823 29.9716L16.6092 30.0521H16.8631ZM184.134 21.2701C184.198 21.1896 184.071 21.0284 183.817 21.0284L183.563 21.1896C183.436 21.3507 183.436 21.5924 183.499 21.7536H183.69C183.817 21.673 184.134 21.4313 184.134 21.2701ZM161.982 1.36967C162.045 1.20853 162.045 1.12796 161.855 1.20853C161.665 1.2891 161.284 1.20853 161.22 1.2891V1.36967C161.22 1.53081 161.157 1.69194 161.347 1.69194H161.474C161.601 1.85308 161.918 1.53081 161.982 1.36967ZM187.181 4.99526C186.99 4.83412 186.99 4.75355 187.181 4.91469C187.371 5.07583 187.942 5.23697 188.006 5.23697C188.069 5.1564 188.006 4.91469 187.689 4.83412L187.562 4.91469L187.181 4.99526ZM166.108 1.69194C166.298 1.77251 166.425 1.85308 166.362 1.77251C166.362 1.69194 166.425 1.45024 166.425 1.45024C166.425 1.36967 166.362 1.20853 166.171 1.20853C165.981 1.12796 165.917 1.61137 166.108 1.69194ZM102.996 1.77251C102.806 1.77251 102.869 1.93365 103.06 2.17536L103.25 2.25592H103.314C103.568 2.01422 103.187 1.77251 102.996 1.77251ZM40.983 30.2938C40.7926 30.2938 40.7291 30.3744 40.7291 30.5355C40.7926 30.6967 41.0465 30.9384 41.2369 30.8578C41.4273 30.7773 41.1734 30.2938 40.983 30.2938ZM188.45 24.2512C188.45 24.2512 188.387 24.4123 188.323 24.4929C188.196 24.5735 188.196 24.8957 188.323 24.8152L188.45 24.7346L188.641 24.654C188.831 24.5735 188.958 24.4123 188.831 24.3318L188.704 24.2512C188.641 24.2512 188.641 24.1706 188.577 24.1706H188.514C188.45 24.1706 188.45 24.2512 188.45 24.2512ZM185.975 21.5924C186.165 21.5924 186.292 21.5119 186.165 21.3507C186.038 21.2701 185.53 21.3507 185.404 21.3507C185.15 21.4313 185.721 21.5924 185.975 21.5924ZM96.0778 2.09479C96.2682 2.33649 96.5221 2.17536 96.649 1.77251L96.2682 1.61137L96.2047 1.53081C96.0143 1.69194 95.8874 1.85308 95.8874 1.85308L96.0778 2.09479ZM34.1913 7.57346C34.1279 7.65403 34.1279 7.7346 34.1913 7.81517C34.2548 7.89574 34.6357 8.05687 34.7626 8.13744H34.8895C34.953 8.13744 35.0165 8.05687 35.0165 8.05687C35.0165 7.9763 35.0165 7.89573 35.0165 7.89573L34.8261 7.7346C34.6356 7.57346 34.3183 7.49289 34.1913 7.57346ZM22.5122 8.78199C22.2584 8.45972 21.941 8.45972 21.6236 8.62085C22.0045 9.10427 22.0045 9.10427 22.5122 8.78199Z" fill="#FF0336"/>
</svg>
